<svg width="50" height="50" viewBox="0 0 50 50" fill="none" xmlns="http://www.w3.org/2000/svg">
<g clip-path="url(#clip0_271_17)">
<path d="M27.5293 25L40.3467 9.72168C40.5615 9.46777 40.3809 9.08203 40.0488 9.08203H36.1524C35.9229 9.08203 35.7031 9.18457 35.5518 9.36035L24.9805 21.9629L14.4092 9.36035C14.2627 9.18457 14.043 9.08203 13.8086 9.08203H9.91213C9.5801 9.08203 9.39944 9.46777 9.61428 9.72168L22.4317 25L9.61428 40.2783C9.56616 40.3349 9.53528 40.4041 9.52532 40.4778C9.51536 40.5514 9.52674 40.6263 9.5581 40.6937C9.58946 40.761 9.63949 40.8179 9.70224 40.8577C9.765 40.8975 9.83784 40.9184 9.91213 40.918H13.8086C14.0381 40.918 14.2578 40.8154 14.4092 40.6397L24.9805 28.0371L35.5518 40.6397C35.6983 40.8154 35.918 40.918 36.1524 40.918H40.0488C40.3809 40.918 40.5615 40.5322 40.3467 40.2783L27.5293 25Z" fill="#934444"/>
</g>
<defs>
<clipPath id="clip0_271_17">
<rect width="50" height="50" fill="white"/>
</clipPath>
</defs>
</svg>
